<svg width="110" height="28" viewBox="0 0 110 28" fill="none" xmlns="http://www.w3.org/2000/svg">
<rect width="110" height="28" fill="#1C1917"/>
<g clip-path="url(#clip0_630_101)">
<rect width="28" height="28" fill="url(#paint0_linear_630_101)"/>
<path d="M20.1133 8.9327C20.2223 8.2279 19.5522 7.67161 18.9255 7.94675L6.44422 13.4267C5.99482 13.624 6.0277 14.3048 6.49378 14.4532L9.06771 15.2729C9.55902 15.4293 10.0909 15.3484 10.5199 15.052L16.3231 11.0428C16.4981 10.9218 16.6889 11.1707 16.5393 11.3248L12.3621 15.6315C11.9569 16.0493 12.0373 16.7573 12.5247 17.0629L17.2016 19.9958C17.7262 20.3247 18.401 19.9943 18.4991 19.3603L20.1133 8.9327Z" fill="white"/>
</g>
<path d="M33.822 13.42V18H32.982V10.34H33.952L36.332 15.82L38.512 10.34H39.482V18H38.592V13.43C38.5986 13.2033 38.602 12.9767 38.602 12.75C38.6086 12.5233 38.6153 12.2967 38.622 12.07H38.592L38.112 13.44L36.742 16.85H35.742L34.272 13.42L33.822 12.18H33.802C33.8086 12.3867 33.812 12.5933 33.812 12.8C33.8186 13.0067 33.822 13.2133 33.822 13.42ZM43.8009 14.39V18H42.8109V14.39L40.3209 10.34H41.4809L43.3909 13.43L45.2809 10.34H46.2509L43.8009 14.39ZM57.2715 18H56.2815V11.11H53.6715V10.34H59.8315V11.11H57.2715V18ZM65.2963 18H60.7163V10.34H65.0363V11.19H61.7063V13.6H64.6163V14.36H61.7063V17.16H65.2963V18ZM71.5466 18H66.5366V10.34H67.5266V17.16H71.5466V18ZM77.0053 18H72.4253V10.34H76.7453V11.19H73.4153V13.6H76.3253V14.36H73.4153V17.16H77.0053V18ZM83.7156 14.21V17.65C82.9156 18.0233 82.1423 18.2167 81.3956 18.23C80.629 18.23 80.009 18.08 79.5356 17.78C79.409 17.7 79.2656 17.5867 79.1056 17.44C78.9523 17.2867 78.8223 17.1367 78.7156 16.99C78.609 16.8433 78.5023 16.6667 78.3956 16.46C78.1156 15.8733 77.9723 15.14 77.9656 14.26C77.9656 13.28 78.1023 12.4967 78.3756 11.91C78.6356 11.3567 79.0123 10.92 79.5056 10.6C79.9856 10.28 80.5656 10.12 81.2456 10.12C81.7056 10.12 82.119 10.19 82.4856 10.33C82.8656 10.47 83.1656 10.6933 83.3856 11C83.5923 11.2667 83.7023 11.5567 83.7156 11.87V11.92H82.7856V11.87C82.7856 11.69 82.719 11.5233 82.5856 11.37C82.4523 11.2167 82.2756 11.1 82.0556 11.02C81.8156 10.9267 81.5623 10.88 81.2956 10.88C80.549 10.88 79.9823 11.1733 79.5956 11.76C79.209 12.3267 79.009 13.1267 78.9956 14.16C78.9956 15.16 79.199 15.9667 79.6056 16.58C80.0056 17.1667 80.5723 17.46 81.3056 17.46C81.7323 17.46 82.2256 17.36 82.7856 17.16V14.98H81.0756V14.21H83.7156ZM86.0423 14.71V18H85.0523V10.34H87.4123C88.0056 10.34 88.4423 10.4267 88.7223 10.6C89.0156 10.7667 89.2489 11.0067 89.4223 11.32C89.5889 11.6667 89.6723 12.01 89.6723 12.35C89.6723 12.6633 89.6156 12.9533 89.5023 13.22C89.3956 13.4867 89.2356 13.7367 89.0223 13.97C88.7889 14.1967 88.4656 14.3933 88.0523 14.56C88.2189 14.6533 88.3423 14.74 88.4223 14.82C88.4756 14.8733 88.5756 15.0067 88.7223 15.22C88.8556 15.42 88.9589 15.5933 89.0323 15.74L90.2523 18H89.1123L88.0523 15.99C87.7856 15.4967 87.4523 15.07 87.0523 14.71H86.0423ZM86.0423 11.11V13.95H87.0223C87.4289 13.95 87.7389 13.8867 87.9523 13.76C88.1523 13.64 88.3189 13.4533 88.4523 13.2C88.5723 12.9667 88.6356 12.7067 88.6423 12.42C88.6423 12.1867 88.5923 11.9767 88.4923 11.79C88.3923 11.6033 88.2489 11.44 88.0623 11.3C87.8756 11.1733 87.5523 11.11 87.0923 11.11H86.0423ZM92.3853 15.9L91.5153 18H90.5953L93.7353 10.34H94.7353L97.6353 18H96.5553L95.7653 15.9H92.3853ZM94.1353 11.58L92.6853 15.13H95.4753L94.1353 11.58ZM99.3591 13.42V18H98.5191V10.34H99.4891L101.869 15.82L104.049 10.34H105.019V18H104.129V13.43C104.136 13.2033 104.139 12.9767 104.139 12.75C104.146 12.5233 104.152 12.2967 104.159 12.07H104.129L103.649 13.44L102.279 16.85H101.279L99.8091 13.42L99.3591 12.18H99.3391C99.3457 12.3867 99.3491 12.5933 99.3491 12.8C99.3557 13.0067 99.3591 13.2133 99.3591 13.42Z" fill="white"/>
<defs>
<linearGradient id="paint0_linear_630_101" x1="14" y1="-1.4" x2="14" y2="28" gradientUnits="userSpaceOnUse">
<stop stop-color="#37BBFE"/>
<stop offset="1" stop-color="#007DBB"/>
</linearGradient>
<clipPath id="clip0_630_101">
<rect width="28" height="28" fill="white"/>
</clipPath>
</defs>
</svg>
